<svg width="85" height="24" viewBox="0 0 85 24" fill="none" xmlns="http://www.w3.org/2000/svg">
<path d="M83.1333 12.2111C83.7889 11.1 84.6889 9.15556 83.6111 7.77778V7.76667C83.5555 7.7 83.5 7.63333 83.4333 7.56667C82.4111 6.55556 80.7889 6.63333 78.6 7.81111C77.6333 7.43333 76.6 7.23333 75.5555 7.23333C73.1778 7.23333 71.0333 8.24444 69.5333 9.86667H68.7555C68.7222 9.77778 68.6889 9.68889 68.6444 9.61111C68.2667 8.88889 67.5333 8.43333 66.7111 8.43333H63.9222C63.2222 8.43333 62.5555 8.77778 62.1444 9.35556L61.8222 9.81111L61.5444 9.4C61.1444 8.8 60.4667 8.44444 59.7444 8.44444H56.9778C56.1667 8.44444 55.4222 8.88889 55.0444 9.61111C55 9.7 54.9556 9.78889 54.9333 9.87778H54.3889C53.6778 9.25556 52.8667 8.78889 51.9778 8.5C52.8889 8.22222 53.8111 7.77778 54.7889 7.1C55.2778 6.75556 55.5889 6.2 55.6111 5.6C55.6333 5 55.3667 4.42222 54.9 4.04444L54.8667 4.02222C52.5 2.07778 50.2111 2.07778 47.7889 2.07778H47.6556L47.3 1.9C46.7 1.6 45.9889 1.6 45.3889 1.9L44.6444 2.27778C44.2667 2.46667 43.9778 2.76667 43.7889 3.12222C43.6778 3.1 43.5667 3.08889 43.4556 3.08889C42.9667 3.08889 42.5111 3.26667 42.1444 3.55556C41.9333 2.04444 40.6111 0.9 39.0556 0.9C37.6667 0.9 36.4667 1.81111 36.0667 3.07778C35.4333 2.45556 34.5556 2.07778 33.6 2.07778C32.7778 2.07778 32 2.36667 31.3889 2.85556C31.0222 2.3 30.3778 1.95556 29.6889 1.95556C29.1556 1.95556 28.6556 2.16667 28.2778 2.51111C27.6778 1.02222 26.1667 0 24.4667 0C22.5889 0 20.9444 1.24444 20.4889 3C19.8667 2.42222 19.0222 2.07778 18.1111 2.07778C17.3111 2.07778 16.5556 2.35556 15.9556 2.81111C15.7556 2.53333 15.4889 2.31111 15.1889 2.15556C14.9444 1.22222 14.1 0.522222 13.0889 0.522222H7.15556C2.94444 0.522222 0 3.5 0 7.76667C0 13.2222 4.57778 14.6444 7.3 15.4889C7.37778 15.5111 7.46667 15.5444 7.54444 15.5667V16.2111H2.46667C1.82222 16.2111 1.23333 16.5667 0.888889 17.1778C0.755556 17.4222 0.655555 17.7 0.577778 18.0444C0.455555 18.6111 0.433333 19.2333 0.433333 19.6667C0.433333 20.2778 0.488889 20.8667 0.577778 21.3333C0.933333 23.0222 2.01111 23.2 2.45556 23.2C3.16667 23.2 4.32222 23.2 5.5 23.2111C6.76667 23.2222 8.07778 23.2222 8.94444 23.2222C11.1 23.2222 12.9556 22.5889 14.3111 21.4C14.5444 21.2 14.7556 20.9778 14.9444 20.7556C14.9667 21.9333 15.9333 22.8889 17.1222 22.8889H19.6778C20.8778 22.8889 21.8556 21.9111 21.8556 20.7111V20.3667H22C22.1889 20.6 22.3889 20.8222 22.6 21.0333C24.0778 22.4778 25.8889 23.2 27.9778 23.2C30.0889 23.2 31.9 22.4667 33.3667 21.0222C33.5778 20.8111 33.7778 20.5889 33.9667 20.3667H34.6889C35.0111 21 35.4333 21.5333 35.9778 21.9444L36 21.9667C36.9444 22.6556 38.2333 23 39.9333 23C40.3667 23 40.8222 22.9778 41.3111 22.9333C42.4333 22.8333 43.2778 21.9 43.2778 20.7778V20.3667H43.4778C43.6667 20.6111 43.8778 20.8444 44.1111 21.0667L44.1222 21.0778C45.5778 22.4778 47.5 23.1889 49.8333 23.1889C51.8111 23.1889 53.4778 22.6667 54.7889 21.6333C54.8 21.6556 54.8111 21.6778 54.8222 21.7C55.2 22.4222 55.9333 22.8778 56.7556 22.8778H59.5222C60.2222 22.8778 60.8889 22.5333 61.3 21.9556L61.8 21.2444L62.3111 21.9556C62.7222 22.5333 63.3778 22.8778 64.0889 22.8778H66.8778C67.0333 22.8778 67.1778 22.8667 67.3333 22.8333L67.3444 22.8556L67.6111 23.2222L67.6889 23.3C67.9778 23.5889 68.5444 23.9889 69.4556 23.9889C69.7333 23.9889 70.0555 23.9556 70.4111 23.8556C70.9667 23.7111 71.5778 23.4444 72.2667 23.0444L73.4333 23.3556C74.1222 23.5444 74.8444 23.6333 75.5667 23.6333C80.1 23.6333 83.7889 19.9444 83.7889 15.4111C83.7889 14.5111 83.6444 13.6333 83.3667 12.7889L83.1333 12.2111Z" fill="#173A4B"/>
<mask id="path-2-inside-1_19449_18357" fill="white">
<path fill-rule="evenodd" clip-rule="evenodd" d="M19.6887 6.48874H17.1332C16.7999 6.48874 16.5332 6.7554 16.5332 7.08874V20.7221C16.5332 21.0554 16.7999 21.3221 17.1332 21.3221H19.6887C20.0221 21.3221 20.2887 21.0554 20.2887 20.7221V7.08874C20.2887 6.7554 20.011 6.48874 19.6887 6.48874Z"/>
<path fill-rule="evenodd" clip-rule="evenodd" d="M41.0887 9.99985H39.3332V7.08874C39.3332 6.7554 39.0665 6.48874 38.7332 6.48874H36.1776C35.8443 6.48874 35.5776 6.7554 35.5776 7.08874V16.9776C35.5776 18.7776 36.0332 20.0221 36.9332 20.711C37.7776 21.3332 39.1888 21.5554 41.1554 21.3776C41.4554 21.3554 41.6887 21.0887 41.6887 20.7887V18.5554C41.6887 18.211 41.3999 17.9443 41.0554 17.9443C40.5332 17.9443 40.1443 17.8998 39.8776 17.811C39.511 17.6887 39.3332 17.3776 39.3332 16.8776V13.5887H41.0887C41.4221 13.5887 41.6887 13.3221 41.6887 12.9887V10.5887C41.6887 10.2665 41.4221 9.99985 41.0887 9.99985Z"/>
<path fill-rule="evenodd" clip-rule="evenodd" d="M49.511 9.67762C47.7554 9.67762 46.3221 10.2554 45.1887 11.3998C44.0554 12.5443 43.4888 13.9776 43.4888 15.6776C43.4888 17.3998 44.0665 18.8221 45.211 19.9554C46.3776 21.0776 47.911 21.6332 49.8332 21.6332C51.711 21.6332 53.1888 21.0887 54.2776 19.9998C54.5221 19.7554 54.4665 19.3554 54.1776 19.1554L52.3888 17.8998C52.1554 17.7332 51.8443 17.7665 51.5999 17.9221C51.1221 18.2443 50.5554 18.411 49.9221 18.411C48.611 18.411 47.7665 17.9554 47.3888 17.0332H55.1999C55.311 16.5998 55.3554 16.1221 55.3554 15.6332C55.3554 13.9221 54.7999 12.511 53.6999 11.3776C52.5999 10.2443 51.1999 9.67762 49.511 9.67762ZM47.3332 14.4332C47.6554 13.3776 48.3888 12.8443 49.5554 12.8443C50.6776 12.8443 51.3776 13.3776 51.6887 14.4332H47.3332Z"/>
<path fill-rule="evenodd" clip-rule="evenodd" d="M63.911 15.5443L67.1776 10.9443C67.4554 10.5443 67.1776 9.99985 66.6888 9.99985H63.8999C63.6999 9.99985 63.5221 10.0998 63.411 10.2554L61.7776 12.5665L60.2221 10.2665C60.111 10.0998 59.9221 9.99985 59.7221 9.99985H56.9554C56.4665 9.99985 56.1888 10.5443 56.4665 10.9443L59.6776 15.5443L56.2554 20.3665C55.9776 20.7665 56.2554 21.311 56.7443 21.311H59.511C59.711 21.311 59.8888 21.211 59.9999 21.0554L61.7887 18.5221L63.5776 21.0554C63.6888 21.211 63.8776 21.311 64.0665 21.311H66.8554C67.3443 21.311 67.6332 20.7554 67.3443 20.3665L63.911 15.5443Z"/>
<path fill-rule="evenodd" clip-rule="evenodd" d="M82.3665 8.74429C82.3443 8.72207 82.3332 8.69985 82.311 8.67763C81.7776 8.14429 80.4554 8.49985 78.7776 9.51096C78.711 9.5554 78.6221 9.5554 78.5554 9.52207C77.6554 9.06651 76.6332 8.79985 75.5443 8.79985C71.8776 8.79985 68.8999 11.7776 68.8999 15.4443C68.8999 16.5221 69.1554 17.5554 69.6221 18.4554C69.6554 18.5221 69.6554 18.611 69.611 18.6776C68.6999 20.1887 68.3221 21.4221 68.6554 22.0332L68.7887 22.211C69.7999 23.2221 73.3887 20.811 77.1332 17.0776C80.7776 13.411 83.2221 9.83318 82.3665 8.74429ZM74.0776 16.3332L72.6776 16.911C72.6554 16.9221 72.6332 16.9443 72.6221 16.9665L72.0443 18.3665C72.011 18.4554 71.8776 18.4554 71.8443 18.3665L71.2665 16.9665C71.2554 16.9443 71.2332 16.9221 71.211 16.911L69.811 16.3332C69.7221 16.2998 69.7221 16.1665 69.811 16.1332L71.211 15.5554C71.2332 15.5443 71.2554 15.5221 71.2665 15.4998L71.8443 14.0998C71.8776 14.011 72.011 14.011 72.0443 14.0998L72.6221 15.4998C72.6332 15.5221 72.6554 15.5443 72.6776 15.5554L74.0776 16.1332C74.1776 16.1665 74.1776 16.2998 74.0776 16.3332Z"/>
<path fill-rule="evenodd" clip-rule="evenodd" d="M75.6332 20.2665C75.3221 20.5221 74.9999 20.811 74.6554 21.1221C74.3887 21.3665 74.111 21.611 73.8221 21.8554C74.3776 21.9998 74.9554 22.0776 75.5443 22.0776C79.211 22.0776 82.1888 19.0998 82.1888 15.4332C82.1888 14.6887 82.0665 13.9776 81.8443 13.311C80.911 14.7554 78.8443 17.6221 75.6332 20.2665Z"/>
<path fill-rule="evenodd" clip-rule="evenodd" d="M45.3665 6.72207C45.0887 6.86651 45.0887 7.2554 45.3665 7.39985L46.111 7.77763C46.2554 7.8554 46.4332 7.8554 46.5887 7.77763L47.211 7.4554C47.2887 7.42207 47.3665 7.39985 47.4443 7.39985C49.9665 7.39985 51.7221 7.28874 53.8776 5.78874C54.0665 5.6554 54.0776 5.38874 53.8999 5.24429L53.8665 5.22207C51.9332 3.6554 50.0887 3.6554 47.7887 3.66651C47.6665 3.66651 47.5332 3.66651 47.3999 3.66651C47.3221 3.66651 47.2332 3.64429 47.1665 3.61096L46.5887 3.31096C46.4443 3.23318 46.2665 3.23318 46.111 3.31096L45.3665 3.68874C45.0887 3.83318 45.0887 4.22207 45.3665 4.36651C45.4888 4.43318 45.5776 4.56651 45.5776 4.69985V6.39985C45.5776 6.53318 45.4999 6.6554 45.3665 6.72207ZM48.5554 5.3554L49.4999 5.07763C49.5332 5.06651 49.5665 5.04429 49.5776 4.99985L49.8554 4.08874C49.8887 3.97763 50.0332 3.97763 50.0665 4.08874L50.3443 4.99985C50.3554 5.03318 50.3776 5.06651 50.4221 5.07763L51.3665 5.3554C51.4665 5.38874 51.4776 5.53318 51.3665 5.56651L50.4665 5.88874C50.4332 5.89985 50.411 5.92207 50.3999 5.9554L50.0665 6.88874C50.0332 6.98874 49.8887 6.98874 49.8554 6.88874L49.5221 5.9554C49.511 5.92207 49.4887 5.89985 49.4554 5.88874L48.5554 5.56651C48.4443 5.52207 48.4554 5.37763 48.5554 5.3554Z"/>
<path fill-rule="evenodd" clip-rule="evenodd" d="M5.47764 8.09985C5.47764 6.99985 6.35541 5.97763 7.51097 5.97763C8.51097 5.97763 11.5221 5.97763 13.111 5.97763C13.4443 5.97763 13.711 5.71096 13.711 5.37763V2.72207C13.711 2.38874 13.4443 2.12207 13.111 2.12207C11.3554 2.12207 9.43319 2.12207 7.15541 2.12207C3.78875 2.12207 1.57764 4.4554 1.57764 7.78874C1.57764 14.8221 10.9221 13.2443 10.9221 16.111C10.9221 17.311 10.2999 17.8221 9.06653 17.8221C7.56653 17.8221 2.46653 17.8221 2.46653 17.8221C1.8443 17.8221 1.87764 21.6554 2.46653 21.6554C3.9443 21.6554 7.27764 21.6776 8.95541 21.6776C12.4443 21.6776 14.9776 19.7221 14.9776 16.0776C14.9776 9.82207 5.47764 11.3776 5.47764 8.09985Z"/>
<path fill-rule="evenodd" clip-rule="evenodd" d="M27.9887 9.67762C26.311 9.67762 24.8888 10.2554 23.711 11.4221C22.5332 12.5665 21.9443 13.9776 21.9443 15.6554C21.9443 17.3332 22.5332 18.7554 23.711 19.911C24.8888 21.0554 26.311 21.6332 27.9887 21.6332C29.6776 21.6332 31.111 21.0554 32.2665 19.911C33.4443 18.7443 34.0332 17.3332 34.0332 15.6554C34.0332 13.9776 33.4443 12.5665 32.2665 11.4221C31.111 10.2665 29.6776 9.67762 27.9887 9.67762ZM32.4554 15.7443L29.2887 16.8665C29.2554 16.8776 29.2332 16.8998 29.2221 16.9332L28.0887 20.1221C28.0554 20.2221 27.911 20.2221 27.8776 20.1221L26.7554 16.9332C26.7443 16.8998 26.7221 16.8776 26.6887 16.8665L23.511 15.7443C23.411 15.711 23.411 15.5665 23.511 15.5332L26.8221 14.5554C26.8554 14.5443 26.8887 14.5221 26.8999 14.4776L27.8776 11.1998C27.911 11.0887 28.0554 11.0887 28.0887 11.1998L29.0665 14.4776C29.0776 14.511 29.0999 14.5443 29.1443 14.5554L32.4554 15.5332C32.5554 15.5665 32.5554 15.711 32.4554 15.7443Z"/>
</mask>
<path fill-rule="evenodd" clip-rule="evenodd" d="M19.6887 6.48874H17.1332C16.7999 6.48874 16.5332 6.7554 16.5332 7.08874V20.7221C16.5332 21.0554 16.7999 21.3221 17.1332 21.3221H19.6887C20.0221 21.3221 20.2887 21.0554 20.2887 20.7221V7.08874C20.2887 6.7554 20.011 6.48874 19.6887 6.48874Z" fill="#173A4B"/>
<path fill-rule="evenodd" clip-rule="evenodd" d="M19.6887 6.48874H17.1332C16.7999 6.48874 16.5332 6.7554 16.5332 7.08874V20.7221C16.5332 21.0554 16.7999 21.3221 17.1332 21.3221H19.6887C20.0221 21.3221 20.2887 21.0554 20.2887 20.7221V7.08874C20.2887 6.7554 20.011 6.48874 19.6887 6.48874Z" fill="url(#paint0_linear_19449_18357)"/>
<path fill-rule="evenodd" clip-rule="evenodd" d="M41.0887 9.99985H39.3332V7.08874C39.3332 6.7554 39.0665 6.48874 38.7332 6.48874H36.1776C35.8443 6.48874 35.5776 6.7554 35.5776 7.08874V16.9776C35.5776 18.7776 36.0332 20.0221 36.9332 20.711C37.7776 21.3332 39.1888 21.5554 41.1554 21.3776C41.4554 21.3554 41.6887 21.0887 41.6887 20.7887V18.5554C41.6887 18.211 41.3999 17.9443 41.0554 17.9443C40.5332 17.9443 40.1443 17.8998 39.8776 17.811C39.511 17.6887 39.3332 17.3776 39.3332 16.8776V13.5887H41.0887C41.4221 13.5887 41.6887 13.3221 41.6887 12.9887V10.5887C41.6887 10.2665 41.4221 9.99985 41.0887 9.99985Z" fill="#173A4B"/>
<path fill-rule="evenodd" clip-rule="evenodd" d="M41.0887 9.99985H39.3332V7.08874C39.3332 6.7554 39.0665 6.48874 38.7332 6.48874H36.1776C35.8443 6.48874 35.5776 6.7554 35.5776 7.08874V16.9776C35.5776 18.7776 36.0332 20.0221 36.9332 20.711C37.7776 21.3332 39.1888 21.5554 41.1554 21.3776C41.4554 21.3554 41.6887 21.0887 41.6887 20.7887V18.5554C41.6887 18.211 41.3999 17.9443 41.0554 17.9443C40.5332 17.9443 40.1443 17.8998 39.8776 17.811C39.511 17.6887 39.3332 17.3776 39.3332 16.8776V13.5887H41.0887C41.4221 13.5887 41.6887 13.3221 41.6887 12.9887V10.5887C41.6887 10.2665 41.4221 9.99985 41.0887 9.99985Z" fill="url(#paint1_linear_19449_18357)"/>
<path fill-rule="evenodd" clip-rule="evenodd" d="M49.511 9.67762C47.7554 9.67762 46.3221 10.2554 45.1887 11.3998C44.0554 12.5443 43.4888 13.9776 43.4888 15.6776C43.4888 17.3998 44.0665 18.8221 45.211 19.9554C46.3776 21.0776 47.911 21.6332 49.8332 21.6332C51.711 21.6332 53.1888 21.0887 54.2776 19.9998C54.5221 19.7554 54.4665 19.3554 54.1776 19.1554L52.3888 17.8998C52.1554 17.7332 51.8443 17.7665 51.5999 17.9221C51.1221 18.2443 50.5554 18.411 49.9221 18.411C48.611 18.411 47.7665 17.9554 47.3888 17.0332H55.1999C55.311 16.5998 55.3554 16.1221 55.3554 15.6332C55.3554 13.9221 54.7999 12.511 53.6999 11.3776C52.5999 10.2443 51.1999 9.67762 49.511 9.67762ZM47.3332 14.4332C47.6554 13.3776 48.3888 12.8443 49.5554 12.8443C50.6776 12.8443 51.3776 13.3776 51.6887 14.4332H47.3332Z" fill="#173A4B"/>
<path fill-rule="evenodd" clip-rule="evenodd" d="M49.511 9.67762C47.7554 9.67762 46.3221 10.2554 45.1887 11.3998C44.0554 12.5443 43.4888 13.9776 43.4888 15.6776C43.4888 17.3998 44.0665 18.8221 45.211 19.9554C46.3776 21.0776 47.911 21.6332 49.8332 21.6332C51.711 21.6332 53.1888 21.0887 54.2776 19.9998C54.5221 19.7554 54.4665 19.3554 54.1776 19.1554L52.3888 17.8998C52.1554 17.7332 51.8443 17.7665 51.5999 17.9221C51.1221 18.2443 50.5554 18.411 49.9221 18.411C48.611 18.411 47.7665 17.9554 47.3888 17.0332H55.1999C55.311 16.5998 55.3554 16.1221 55.3554 15.6332C55.3554 13.9221 54.7999 12.511 53.6999 11.3776C52.5999 10.2443 51.1999 9.67762 49.511 9.67762ZM47.3332 14.4332C47.6554 13.3776 48.3888 12.8443 49.5554 12.8443C50.6776 12.8443 51.3776 13.3776 51.6887 14.4332H47.3332Z" fill="url(#paint2_linear_19449_18357)"/>
<path fill-rule="evenodd" clip-rule="evenodd" d="M63.911 15.5443L67.1776 10.9443C67.4554 10.5443 67.1776 9.99985 66.6888 9.99985H63.8999C63.6999 9.99985 63.5221 10.0998 63.411 10.2554L61.7776 12.5665L60.2221 10.2665C60.111 10.0998 59.9221 9.99985 59.7221 9.99985H56.9554C56.4665 9.99985 56.1888 10.5443 56.4665 10.9443L59.6776 15.5443L56.2554 20.3665C55.9776 20.7665 56.2554 21.311 56.7443 21.311H59.511C59.711 21.311 59.8888 21.211 59.9999 21.0554L61.7887 18.5221L63.5776 21.0554C63.6888 21.211 63.8776 21.311 64.0665 21.311H66.8554C67.3443 21.311 67.6332 20.7554 67.3443 20.3665L63.911 15.5443Z" fill="#173A4B"/>
<path fill-rule="evenodd" clip-rule="evenodd" d="M63.911 15.5443L67.1776 10.9443C67.4554 10.5443 67.1776 9.99985 66.6888 9.99985H63.8999C63.6999 9.99985 63.5221 10.0998 63.411 10.2554L61.7776 12.5665L60.2221 10.2665C60.111 10.0998 59.9221 9.99985 59.7221 9.99985H56.9554C56.4665 9.99985 56.1888 10.5443 56.4665 10.9443L59.6776 15.5443L56.2554 20.3665C55.9776 20.7665 56.2554 21.311 56.7443 21.311H59.511C59.711 21.311 59.8888 21.211 59.9999 21.0554L61.7887 18.5221L63.5776 21.0554C63.6888 21.211 63.8776 21.311 64.0665 21.311H66.8554C67.3443 21.311 67.6332 20.7554 67.3443 20.3665L63.911 15.5443Z" fill="url(#paint3_linear_19449_18357)"/>
<path fill-rule="evenodd" clip-rule="evenodd" d="M82.3665 8.74429C82.3443 8.72207 82.3332 8.69985 82.311 8.67763C81.7776 8.14429 80.4554 8.49985 78.7776 9.51096C78.711 9.5554 78.6221 9.5554 78.5554 9.52207C77.6554 9.06651 76.6332 8.79985 75.5443 8.79985C71.8776 8.79985 68.8999 11.7776 68.8999 15.4443C68.8999 16.5221 69.1554 17.5554 69.6221 18.4554C69.6554 18.5221 69.6554 18.611 69.611 18.6776C68.6999 20.1887 68.3221 21.4221 68.6554 22.0332L68.7887 22.211C69.7999 23.2221 73.3887 20.811 77.1332 17.0776C80.7776 13.411 83.2221 9.83318 82.3665 8.74429ZM74.0776 16.3332L72.6776 16.911C72.6554 16.9221 72.6332 16.9443 72.6221 16.9665L72.0443 18.3665C72.011 18.4554 71.8776 18.4554 71.8443 18.3665L71.2665 16.9665C71.2554 16.9443 71.2332 16.9221 71.211 16.911L69.811 16.3332C69.7221 16.2998 69.7221 16.1665 69.811 16.1332L71.211 15.5554C71.2332 15.5443 71.2554 15.5221 71.2665 15.4998L71.8443 14.0998C71.8776 14.011 72.011 14.011 72.0443 14.0998L72.6221 15.4998C72.6332 15.5221 72.6554 15.5443 72.6776 15.5554L74.0776 16.1332C74.1776 16.1665 74.1776 16.2998 74.0776 16.3332Z" fill="#173A4B"/>
<path fill-rule="evenodd" clip-rule="evenodd" d="M82.3665 8.74429C82.3443 8.72207 82.3332 8.69985 82.311 8.67763C81.7776 8.14429 80.4554 8.49985 78.7776 9.51096C78.711 9.5554 78.6221 9.5554 78.5554 9.52207C77.6554 9.06651 76.6332 8.79985 75.5443 8.79985C71.8776 8.79985 68.8999 11.7776 68.8999 15.4443C68.8999 16.5221 69.1554 17.5554 69.6221 18.4554C69.6554 18.5221 69.6554 18.611 69.611 18.6776C68.6999 20.1887 68.3221 21.4221 68.6554 22.0332L68.7887 22.211C69.7999 23.2221 73.3887 20.811 77.1332 17.0776C80.7776 13.411 83.2221 9.83318 82.3665 8.74429ZM74.0776 16.3332L72.6776 16.911C72.6554 16.9221 72.6332 16.9443 72.6221 16.9665L72.0443 18.3665C72.011 18.4554 71.8776 18.4554 71.8443 18.3665L71.2665 16.9665C71.2554 16.9443 71.2332 16.9221 71.211 16.911L69.811 16.3332C69.7221 16.2998 69.7221 16.1665 69.811 16.1332L71.211 15.5554C71.2332 15.5443 71.2554 15.5221 71.2665 15.4998L71.8443 14.0998C71.8776 14.011 72.011 14.011 72.0443 14.0998L72.6221 15.4998C72.6332 15.5221 72.6554 15.5443 72.6776 15.5554L74.0776 16.1332C74.1776 16.1665 74.1776 16.2998 74.0776 16.3332Z" fill="url(#paint4_linear_19449_18357)"/>
<path fill-rule="evenodd" clip-rule="evenodd" d="M75.6332 20.2665C75.3221 20.5221 74.9999 20.811 74.6554 21.1221C74.3887 21.3665 74.111 21.611 73.8221 21.8554C74.3776 21.9998 74.9554 22.0776 75.5443 22.0776C79.211 22.0776 82.1888 19.0998 82.1888 15.4332C82.1888 14.6887 82.0665 13.9776 81.8443 13.311C80.911 14.7554 78.8443 17.6221 75.6332 20.2665Z" fill="#173A4B"/>
<path fill-rule="evenodd" clip-rule="evenodd" d="M75.6332 20.2665C75.3221 20.5221 74.9999 20.811 74.6554 21.1221C74.3887 21.3665 74.111 21.611 73.8221 21.8554C74.3776 21.9998 74.9554 22.0776 75.5443 22.0776C79.211 22.0776 82.1888 19.0998 82.1888 15.4332C82.1888 14.6887 82.0665 13.9776 81.8443 13.311C80.911 14.7554 78.8443 17.6221 75.6332 20.2665Z" fill="url(#paint5_linear_19449_18357)"/>
<path fill-rule="evenodd" clip-rule="evenodd" d="M45.3665 6.72207C45.0887 6.86651 45.0887 7.2554 45.3665 7.39985L46.111 7.77763C46.2554 7.8554 46.4332 7.8554 46.5887 7.77763L47.211 7.4554C47.2887 7.42207 47.3665 7.39985 47.4443 7.39985C49.9665 7.39985 51.7221 7.28874 53.8776 5.78874C54.0665 5.6554 54.0776 5.38874 53.8999 5.24429L53.8665 5.22207C51.9332 3.6554 50.0887 3.6554 47.7887 3.66651C47.6665 3.66651 47.5332 3.66651 47.3999 3.66651C47.3221 3.66651 47.2332 3.64429 47.1665 3.61096L46.5887 3.31096C46.4443 3.23318 46.2665 3.23318 46.111 3.31096L45.3665 3.68874C45.0887 3.83318 45.0887 4.22207 45.3665 4.36651C45.4888 4.43318 45.5776 4.56651 45.5776 4.69985V6.39985C45.5776 6.53318 45.4999 6.6554 45.3665 6.72207ZM48.5554 5.3554L49.4999 5.07763C49.5332 5.06651 49.5665 5.04429 49.5776 4.99985L49.8554 4.08874C49.8887 3.97763 50.0332 3.97763 50.0665 4.08874L50.3443 4.99985C50.3554 5.03318 50.3776 5.06651 50.4221 5.07763L51.3665 5.3554C51.4665 5.38874 51.4776 5.53318 51.3665 5.56651L50.4665 5.88874C50.4332 5.89985 50.411 5.92207 50.3999 5.9554L50.0665 6.88874C50.0332 6.98874 49.8887 6.98874 49.8554 6.88874L49.5221 5.9554C49.511 5.92207 49.4887 5.89985 49.4554 5.88874L48.5554 5.56651C48.4443 5.52207 48.4554 5.37763 48.5554 5.3554Z" fill="#173A4B"/>
<path fill-rule="evenodd" clip-rule="evenodd" d="M45.3665 6.72207C45.0887 6.86651 45.0887 7.2554 45.3665 7.39985L46.111 7.77763C46.2554 7.8554 46.4332 7.8554 46.5887 7.77763L47.211 7.4554C47.2887 7.42207 47.3665 7.39985 47.4443 7.39985C49.9665 7.39985 51.7221 7.28874 53.8776 5.78874C54.0665 5.6554 54.0776 5.38874 53.8999 5.24429L53.8665 5.22207C51.9332 3.6554 50.0887 3.6554 47.7887 3.66651C47.6665 3.66651 47.5332 3.66651 47.3999 3.66651C47.3221 3.66651 47.2332 3.64429 47.1665 3.61096L46.5887 3.31096C46.4443 3.23318 46.2665 3.23318 46.111 3.31096L45.3665 3.68874C45.0887 3.83318 45.0887 4.22207 45.3665 4.36651C45.4888 4.43318 45.5776 4.56651 45.5776 4.69985V6.39985C45.5776 6.53318 45.4999 6.6554 45.3665 6.72207ZM48.5554 5.3554L49.4999 5.07763C49.5332 5.06651 49.5665 5.04429 49.5776 4.99985L49.8554 4.08874C49.8887 3.97763 50.0332 3.97763 50.0665 4.08874L50.3443 4.99985C50.3554 5.03318 50.3776 5.06651 50.4221 5.07763L51.3665 5.3554C51.4665 5.38874 51.4776 5.53318 51.3665 5.56651L50.4665 5.88874C50.4332 5.89985 50.411 5.92207 50.3999 5.9554L50.0665 6.88874C50.0332 6.98874 49.8887 6.98874 49.8554 6.88874L49.5221 5.9554C49.511 5.92207 49.4887 5.89985 49.4554 5.88874L48.5554 5.56651C48.4443 5.52207 48.4554 5.37763 48.5554 5.3554Z" fill="url(#paint6_linear_19449_18357)"/>
<path fill-rule="evenodd" clip-rule="evenodd" d="M5.47764 8.09985C5.47764 6.99985 6.35541 5.97763 7.51097 5.97763C8.51097 5.97763 11.5221 5.97763 13.111 5.97763C13.4443 5.97763 13.711 5.71096 13.711 5.37763V2.72207C13.711 2.38874 13.4443 2.12207 13.111 2.12207C11.3554 2.12207 9.43319 2.12207 7.15541 2.12207C3.78875 2.12207 1.57764 4.4554 1.57764 7.78874C1.57764 14.8221 10.9221 13.2443 10.9221 16.111C10.9221 17.311 10.2999 17.8221 9.06653 17.8221C7.56653 17.8221 2.46653 17.8221 2.46653 17.8221C1.8443 17.8221 1.87764 21.6554 2.46653 21.6554C3.9443 21.6554 7.27764 21.6776 8.95541 21.6776C12.4443 21.6776 14.9776 19.7221 14.9776 16.0776C14.9776 9.82207 5.47764 11.3776 5.47764 8.09985Z" fill="#173A4B"/>
<path fill-rule="evenodd" clip-rule="evenodd" d="M5.47764 8.09985C5.47764 6.99985 6.35541 5.97763 7.51097 5.97763C8.51097 5.97763 11.5221 5.97763 13.111 5.97763C13.4443 5.97763 13.711 5.71096 13.711 5.37763V2.72207C13.711 2.38874 13.4443 2.12207 13.111 2.12207C11.3554 2.12207 9.43319 2.12207 7.15541 2.12207C3.78875 2.12207 1.57764 4.4554 1.57764 7.78874C1.57764 14.8221 10.9221 13.2443 10.9221 16.111C10.9221 17.311 10.2999 17.8221 9.06653 17.8221C7.56653 17.8221 2.46653 17.8221 2.46653 17.8221C1.8443 17.8221 1.87764 21.6554 2.46653 21.6554C3.9443 21.6554 7.27764 21.6776 8.95541 21.6776C12.4443 21.6776 14.9776 19.7221 14.9776 16.0776C14.9776 9.82207 5.47764 11.3776 5.47764 8.09985Z" fill="url(#paint7_linear_19449_18357)"/>
<path fill-rule="evenodd" clip-rule="evenodd" d="M27.9887 9.67762C26.311 9.67762 24.8888 10.2554 23.711 11.4221C22.5332 12.5665 21.9443 13.9776 21.9443 15.6554C21.9443 17.3332 22.5332 18.7554 23.711 19.911C24.8888 21.0554 26.311 21.6332 27.9887 21.6332C29.6776 21.6332 31.111 21.0554 32.2665 19.911C33.4443 18.7443 34.0332 17.3332 34.0332 15.6554C34.0332 13.9776 33.4443 12.5665 32.2665 11.4221C31.111 10.2665 29.6776 9.67762 27.9887 9.67762ZM32.4554 15.7443L29.2887 16.8665C29.2554 16.8776 29.2332 16.8998 29.2221 16.9332L28.0887 20.1221C28.0554 20.2221 27.911 20.2221 27.8776 20.1221L26.7554 16.9332C26.7443 16.8998 26.7221 16.8776 26.6887 16.8665L23.511 15.7443C23.411 15.711 23.411 15.5665 23.511 15.5332L26.8221 14.5554C26.8554 14.5443 26.8887 14.5221 26.8999 14.4776L27.8776 11.1998C27.911 11.0887 28.0554 11.0887 28.0887 11.1998L29.0665 14.4776C29.0776 14.511 29.0999 14.5443 29.1443 14.5554L32.4554 15.5332C32.5554 15.5665 32.5554 15.711 32.4554 15.7443Z" fill="#173A4B"/>
<path fill-rule="evenodd" clip-rule="evenodd" d="M27.9887 9.67762C26.311 9.67762 24.8888 10.2554 23.711 11.4221C22.5332 12.5665 21.9443 13.9776 21.9443 15.6554C21.9443 17.3332 22.5332 18.7554 23.711 19.911C24.8888 21.0554 26.311 21.6332 27.9887 21.6332C29.6776 21.6332 31.111 21.0554 32.2665 19.911C33.4443 18.7443 34.0332 17.3332 34.0332 15.6554C34.0332 13.9776 33.4443 12.5665 32.2665 11.4221C31.111 10.2665 29.6776 9.67762 27.9887 9.67762ZM32.4554 15.7443L29.2887 16.8665C29.2554 16.8776 29.2332 16.8998 29.2221 16.9332L28.0887 20.1221C28.0554 20.2221 27.911 20.2221 27.8776 20.1221L26.7554 16.9332C26.7443 16.8998 26.7221 16.8776 26.6887 16.8665L23.511 15.7443C23.411 15.711 23.411 15.5665 23.511 15.5332L26.8221 14.5554C26.8554 14.5443 26.8887 14.5221 26.8999 14.4776L27.8776 11.1998C27.911 11.0887 28.0554 11.0887 28.0887 11.1998L29.0665 14.4776C29.0776 14.511 29.0999 14.5443 29.1443 14.5554L32.4554 15.5332C32.5554 15.5665 32.5554 15.711 32.4554 15.7443Z" fill="url(#paint8_linear_19449_18357)"/>
<path fill-rule="evenodd" clip-rule="evenodd" d="M19.6887 6.48874H17.1332C16.7999 6.48874 16.5332 6.7554 16.5332 7.08874V20.7221C16.5332 21.0554 16.7999 21.3221 17.1332 21.3221H19.6887C20.0221 21.3221 20.2887 21.0554 20.2887 20.7221V7.08874C20.2887 6.7554 20.011 6.48874 19.6887 6.48874Z" stroke="url(#paint9_linear_19449_18357)" stroke-opacity="0.6" stroke-width="4.5" stroke-miterlimit="10" mask="url(#path-2-inside-1_19449_18357)"/>
<path fill-rule="evenodd" clip-rule="evenodd" d="M41.0887 9.99985H39.3332V7.08874C39.3332 6.7554 39.0665 6.48874 38.7332 6.48874H36.1776C35.8443 6.48874 35.5776 6.7554 35.5776 7.08874V16.9776C35.5776 18.7776 36.0332 20.0221 36.9332 20.711C37.7776 21.3332 39.1888 21.5554 41.1554 21.3776C41.4554 21.3554 41.6887 21.0887 41.6887 20.7887V18.5554C41.6887 18.211 41.3999 17.9443 41.0554 17.9443C40.5332 17.9443 40.1443 17.8998 39.8776 17.811C39.511 17.6887 39.3332 17.3776 39.3332 16.8776V13.5887H41.0887C41.4221 13.5887 41.6887 13.3221 41.6887 12.9887V10.5887C41.6887 10.2665 41.4221 9.99985 41.0887 9.99985Z" stroke="url(#paint10_linear_19449_18357)" stroke-opacity="0.6" stroke-width="4.5" stroke-miterlimit="10" mask="url(#path-2-inside-1_19449_18357)"/>
<path fill-rule="evenodd" clip-rule="evenodd" d="M49.511 9.67762C47.7554 9.67762 46.3221 10.2554 45.1887 11.3998C44.0554 12.5443 43.4888 13.9776 43.4888 15.6776C43.4888 17.3998 44.0665 18.8221 45.211 19.9554C46.3776 21.0776 47.911 21.6332 49.8332 21.6332C51.711 21.6332 53.1888 21.0887 54.2776 19.9998C54.5221 19.7554 54.4665 19.3554 54.1776 19.1554L52.3888 17.8998C52.1554 17.7332 51.8443 17.7665 51.5999 17.9221C51.1221 18.2443 50.5554 18.411 49.9221 18.411C48.611 18.411 47.7665 17.9554 47.3888 17.0332H55.1999C55.311 16.5998 55.3554 16.1221 55.3554 15.6332C55.3554 13.9221 54.7999 12.511 53.6999 11.3776C52.5999 10.2443 51.1999 9.67762 49.511 9.67762ZM47.3332 14.4332C47.6554 13.3776 48.3888 12.8443 49.5554 12.8443C50.6776 12.8443 51.3776 13.3776 51.6887 14.4332H47.3332Z" stroke="url(#paint11_linear_19449_18357)" stroke-opacity="0.6" stroke-width="4.5" stroke-miterlimit="10" mask="url(#path-2-inside-1_19449_18357)"/>
<path fill-rule="evenodd" clip-rule="evenodd" d="M63.911 15.5443L67.1776 10.9443C67.4554 10.5443 67.1776 9.99985 66.6888 9.99985H63.8999C63.6999 9.99985 63.5221 10.0998 63.411 10.2554L61.7776 12.5665L60.2221 10.2665C60.111 10.0998 59.9221 9.99985 59.7221 9.99985H56.9554C56.4665 9.99985 56.1888 10.5443 56.4665 10.9443L59.6776 15.5443L56.2554 20.3665C55.9776 20.7665 56.2554 21.311 56.7443 21.311H59.511C59.711 21.311 59.8888 21.211 59.9999 21.0554L61.7887 18.5221L63.5776 21.0554C63.6888 21.211 63.8776 21.311 64.0665 21.311H66.8554C67.3443 21.311 67.6332 20.7554 67.3443 20.3665L63.911 15.5443Z" stroke="url(#paint12_linear_19449_18357)" stroke-opacity="0.6" stroke-width="4.5" stroke-miterlimit="10" mask="url(#path-2-inside-1_19449_18357)"/>
<path fill-rule="evenodd" clip-rule="evenodd" d="M82.3665 8.74429C82.3443 8.72207 82.3332 8.69985 82.311 8.67763C81.7776 8.14429 80.4554 8.49985 78.7776 9.51096C78.711 9.5554 78.6221 9.5554 78.5554 9.52207C77.6554 9.06651 76.6332 8.79985 75.5443 8.79985C71.8776 8.79985 68.8999 11.7776 68.8999 15.4443C68.8999 16.5221 69.1554 17.5554 69.6221 18.4554C69.6554 18.5221 69.6554 18.611 69.611 18.6776C68.6999 20.1887 68.3221 21.4221 68.6554 22.0332L68.7887 22.211C69.7999 23.2221 73.3887 20.811 77.1332 17.0776C80.7776 13.411 83.2221 9.83318 82.3665 8.74429ZM74.0776 16.3332L72.6776 16.911C72.6554 16.9221 72.6332 16.9443 72.6221 16.9665L72.0443 18.3665C72.011 18.4554 71.8776 18.4554 71.8443 18.3665L71.2665 16.9665C71.2554 16.9443 71.2332 16.9221 71.211 16.911L69.811 16.3332C69.7221 16.2998 69.7221 16.1665 69.811 16.1332L71.211 15.5554C71.2332 15.5443 71.2554 15.5221 71.2665 15.4998L71.8443 14.0998C71.8776 14.011 72.011 14.011 72.0443 14.0998L72.6221 15.4998C72.6332 15.5221 72.6554 15.5443 72.6776 15.5554L74.0776 16.1332C74.1776 16.1665 74.1776 16.2998 74.0776 16.3332Z" stroke="url(#paint13_linear_19449_18357)" stroke-opacity="0.6" stroke-width="4.5" stroke-miterlimit="10" mask="url(#path-2-inside-1_19449_18357)"/>
<path fill-rule="evenodd" clip-rule="evenodd" d="M75.6332 20.2665C75.3221 20.5221 74.9999 20.811 74.6554 21.1221C74.3887 21.3665 74.111 21.611 73.8221 21.8554C74.3776 21.9998 74.9554 22.0776 75.5443 22.0776C79.211 22.0776 82.1888 19.0998 82.1888 15.4332C82.1888 14.6887 82.0665 13.9776 81.8443 13.311C80.911 14.7554 78.8443 17.6221 75.6332 20.2665Z" stroke="url(#paint14_linear_19449_18357)" stroke-opacity="0.6" stroke-width="4.5" stroke-miterlimit="10" mask="url(#path-2-inside-1_19449_18357)"/>
<path fill-rule="evenodd" clip-rule="evenodd" d="M45.3665 6.72207C45.0887 6.86651 45.0887 7.2554 45.3665 7.39985L46.111 7.77763C46.2554 7.8554 46.4332 7.8554 46.5887 7.77763L47.211 7.4554C47.2887 7.42207 47.3665 7.39985 47.4443 7.39985C49.9665 7.39985 51.7221 7.28874 53.8776 5.78874C54.0665 5.6554 54.0776 5.38874 53.8999 5.24429L53.8665 5.22207C51.9332 3.6554 50.0887 3.6554 47.7887 3.66651C47.6665 3.66651 47.5332 3.66651 47.3999 3.66651C47.3221 3.66651 47.2332 3.64429 47.1665 3.61096L46.5887 3.31096C46.4443 3.23318 46.2665 3.23318 46.111 3.31096L45.3665 3.68874C45.0887 3.83318 45.0887 4.22207 45.3665 4.36651C45.4888 4.43318 45.5776 4.56651 45.5776 4.69985V6.39985C45.5776 6.53318 45.4999 6.6554 45.3665 6.72207ZM48.5554 5.3554L49.4999 5.07763C49.5332 5.06651 49.5665 5.04429 49.5776 4.99985L49.8554 4.08874C49.8887 3.97763 50.0332 3.97763 50.0665 4.08874L50.3443 4.99985C50.3554 5.03318 50.3776 5.06651 50.4221 5.07763L51.3665 5.3554C51.4665 5.38874 51.4776 5.53318 51.3665 5.56651L50.4665 5.88874C50.4332 5.89985 50.411 5.92207 50.3999 5.9554L50.0665 6.88874C50.0332 6.98874 49.8887 6.98874 49.8554 6.88874L49.5221 5.9554C49.511 5.92207 49.4887 5.89985 49.4554 5.88874L48.5554 5.56651C48.4443 5.52207 48.4554 5.37763 48.5554 5.3554Z" stroke="url(#paint15_linear_19449_18357)" stroke-opacity="0.6" stroke-width="4.5" stroke-miterlimit="10" mask="url(#path-2-inside-1_19449_18357)"/>
<path fill-rule="evenodd" clip-rule="evenodd" d="M5.47764 8.09985C5.47764 6.99985 6.35541 5.97763 7.51097 5.97763C8.51097 5.97763 11.5221 5.97763 13.111 5.97763C13.4443 5.97763 13.711 5.71096 13.711 5.37763V2.72207C13.711 2.38874 13.4443 2.12207 13.111 2.12207C11.3554 2.12207 9.43319 2.12207 7.15541 2.12207C3.78875 2.12207 1.57764 4.4554 1.57764 7.78874C1.57764 14.8221 10.9221 13.2443 10.9221 16.111C10.9221 17.311 10.2999 17.8221 9.06653 17.8221C7.56653 17.8221 2.46653 17.8221 2.46653 17.8221C1.8443 17.8221 1.87764 21.6554 2.46653 21.6554C3.9443 21.6554 7.27764 21.6776 8.95541 21.6776C12.4443 21.6776 14.9776 19.7221 14.9776 16.0776C14.9776 9.82207 5.47764 11.3776 5.47764 8.09985Z" stroke="url(#paint16_linear_19449_18357)" stroke-opacity="0.6" stroke-width="4.5" stroke-miterlimit="10" mask="url(#path-2-inside-1_19449_18357)"/>
<path fill-rule="evenodd" clip-rule="evenodd" d="M27.9887 9.67762C26.311 9.67762 24.8888 10.2554 23.711 11.4221C22.5332 12.5665 21.9443 13.9776 21.9443 15.6554C21.9443 17.3332 22.5332 18.7554 23.711 19.911C24.8888 21.0554 26.311 21.6332 27.9887 21.6332C29.6776 21.6332 31.111 21.0554 32.2665 19.911C33.4443 18.7443 34.0332 17.3332 34.0332 15.6554C34.0332 13.9776 33.4443 12.5665 32.2665 11.4221C31.111 10.2665 29.6776 9.67762 27.9887 9.67762ZM32.4554 15.7443L29.2887 16.8665C29.2554 16.8776 29.2332 16.8998 29.2221 16.9332L28.0887 20.1221C28.0554 20.2221 27.911 20.2221 27.8776 20.1221L26.7554 16.9332C26.7443 16.8998 26.7221 16.8776 26.6887 16.8665L23.511 15.7443C23.411 15.711 23.411 15.5665 23.511 15.5332L26.8221 14.5554C26.8554 14.5443 26.8887 14.5221 26.8999 14.4776L27.8776 11.1998C27.911 11.0887 28.0554 11.0887 28.0887 11.1998L29.0665 14.4776C29.0776 14.511 29.0999 14.5443 29.1443 14.5554L32.4554 15.5332C32.5554 15.5665 32.5554 15.711 32.4554 15.7443Z" stroke="url(#paint17_linear_19449_18357)" stroke-opacity="0.6" stroke-width="4.5" stroke-miterlimit="10" mask="url(#path-2-inside-1_19449_18357)"/>
<defs>
<linearGradient id="paint0_linear_19449_18357" x1="42.0577" y1="2.12207" x2="42.0577" y2="22.4423" gradientUnits="userSpaceOnUse">
<stop stop-color="#DBFF00"/>
<stop offset="1" stop-color="#B4C500"/>
</linearGradient>
<linearGradient id="paint1_linear_19449_18357" x1="42.0577" y1="2.12207" x2="42.0577" y2="22.4423" gradientUnits="userSpaceOnUse">
<stop stop-color="#DBFF00"/>
<stop offset="1" stop-color="#B4C500"/>
</linearGradient>
<linearGradient id="paint2_linear_19449_18357" x1="42.0577" y1="2.12207" x2="42.0577" y2="22.4423" gradientUnits="userSpaceOnUse">
<stop stop-color="#DBFF00"/>
<stop offset="1" stop-color="#B4C500"/>
</linearGradient>
<linearGradient id="paint3_linear_19449_18357" x1="42.0577" y1="2.12207" x2="42.0577" y2="22.4423" gradientUnits="userSpaceOnUse">
<stop stop-color="#DBFF00"/>
<stop offset="1" stop-color="#B4C500"/>
</linearGradient>
<linearGradient id="paint4_linear_19449_18357" x1="42.0577" y1="2.12207" x2="42.0577" y2="22.4423" gradientUnits="userSpaceOnUse">
<stop stop-color="#DBFF00"/>
<stop offset="1" stop-color="#B4C500"/>
</linearGradient>
<linearGradient id="paint5_linear_19449_18357" x1="42.0577" y1="2.12207" x2="42.0577" y2="22.4423" gradientUnits="userSpaceOnUse">
<stop stop-color="#DBFF00"/>
<stop offset="1" stop-color="#B4C500"/>
</linearGradient>
<linearGradient id="paint6_linear_19449_18357" x1="42.0577" y1="2.12207" x2="42.0577" y2="22.4423" gradientUnits="userSpaceOnUse">
<stop stop-color="#DBFF00"/>
<stop offset="1" stop-color="#B4C500"/>
</linearGradient>
<linearGradient id="paint7_linear_19449_18357" x1="42.0577" y1="2.12207" x2="42.0577" y2="22.4423" gradientUnits="userSpaceOnUse">
<stop stop-color="#DBFF00"/>
<stop offset="1" stop-color="#B4C500"/>
</linearGradient>
<linearGradient id="paint8_linear_19449_18357" x1="42.0577" y1="2.12207" x2="42.0577" y2="22.4423" gradientUnits="userSpaceOnUse">
<stop stop-color="#DBFF00"/>
<stop offset="1" stop-color="#B4C500"/>
</linearGradient>
<linearGradient id="paint9_linear_19449_18357" x1="42.0577" y1="2.12207" x2="42.0577" y2="22.4423" gradientUnits="userSpaceOnUse">
<stop stop-color="#EDFE81"/>
<stop offset="1" stop-color="#DBFF00"/>
</linearGradient>
<linearGradient id="paint10_linear_19449_18357" x1="42.0577" y1="2.12207" x2="42.0577" y2="22.4423" gradientUnits="userSpaceOnUse">
<stop stop-color="#EDFE81"/>
<stop offset="1" stop-color="#DBFF00"/>
</linearGradient>
<linearGradient id="paint11_linear_19449_18357" x1="42.0577" y1="2.12207" x2="42.0577" y2="22.4423" gradientUnits="userSpaceOnUse">
<stop stop-color="#EDFE81"/>
<stop offset="1" stop-color="#DBFF00"/>
</linearGradient>
<linearGradient id="paint12_linear_19449_18357" x1="42.0577" y1="2.12207" x2="42.0577" y2="22.4423" gradientUnits="userSpaceOnUse">
<stop stop-color="#EDFE81"/>
<stop offset="1" stop-color="#DBFF00"/>
</linearGradient>
<linearGradient id="paint13_linear_19449_18357" x1="42.0577" y1="2.12207" x2="42.0577" y2="22.4423" gradientUnits="userSpaceOnUse">
<stop stop-color="#EDFE81"/>
<stop offset="1" stop-color="#DBFF00"/>
</linearGradient>
<linearGradient id="paint14_linear_19449_18357" x1="42.0577" y1="2.12207" x2="42.0577" y2="22.4423" gradientUnits="userSpaceOnUse">
<stop stop-color="#EDFE81"/>
<stop offset="1" stop-color="#DBFF00"/>
</linearGradient>
<linearGradient id="paint15_linear_19449_18357" x1="42.0577" y1="2.12207" x2="42.0577" y2="22.4423" gradientUnits="userSpaceOnUse">
<stop stop-color="#EDFE81"/>
<stop offset="1" stop-color="#DBFF00"/>
</linearGradient>
<linearGradient id="paint16_linear_19449_18357" x1="42.0577" y1="2.12207" x2="42.0577" y2="22.4423" gradientUnits="userSpaceOnUse">
<stop stop-color="#EDFE81"/>
<stop offset="1" stop-color="#DBFF00"/>
</linearGradient>
<linearGradient id="paint17_linear_19449_18357" x1="42.0577" y1="2.12207" x2="42.0577" y2="22.4423" gradientUnits="userSpaceOnUse">
<stop stop-color="#EDFE81"/>
<stop offset="1" stop-color="#DBFF00"/>
</linearGradient>
</defs>
</svg>
